<svg width="29" height="29" viewBox="0 0 29 29" fill="none" xmlns="http://www.w3.org/2000/svg">
<path d="M15.7346 12.2472L16.6294 12.2424C17.197 11.6479 17.8823 10.9411 18.7779 10.9935C19.677 10.9452 20.3588 11.6397 20.9266 12.2424C21.3065 12.257 22.0399 12.2006 22.3955 12.3333V6.63898H6.60449V15.7308H13.1458L13.5909 15.2809L13.6004 14.3861C13.6057 13.8213 13.832 13.281 14.231 12.8811C14.63 12.4812 15.1698 12.2536 15.7346 12.2472ZM9.71484 10.2517C8.77405 10.2376 8.76879 8.83144 9.71484 8.81619H19.2852C20.2248 8.83284 20.2303 10.234 19.2852 10.2517H9.71484Z" fill="black"/>
<path d="M25.2666 3.05011H3.7334C3.5437 3.04958 3.36154 3.12437 3.22696 3.25806C3.09237 3.39175 3.01636 3.5734 3.01562 3.7631V18.6019C3.01618 18.7921 3.09198 18.9743 3.22647 19.1088C3.36096 19.2433 3.5432 19.3191 3.7334 19.3196H13.3372C12.7012 18.7574 12.2308 18.0206 12.3658 17.1663H5.88672C5.69652 17.1658 5.51428 17.09 5.37979 16.9555C5.2453 16.821 5.1695 16.6387 5.16895 16.4486V5.92121C5.16881 5.82691 5.18729 5.73351 5.22331 5.64637C5.25934 5.55923 5.3122 5.48005 5.37888 5.41337C5.44556 5.34669 5.52474 5.29382 5.61188 5.2578C5.69903 5.22178 5.79242 5.2033 5.88672 5.20343H23.1133C23.3035 5.20398 23.4857 5.27978 23.6202 5.41427C23.7547 5.54876 23.8305 5.73101 23.8311 5.92121V13.6779C24.0131 14.0831 23.9523 14.8394 23.965 15.2809L24.5967 15.9173C25.6062 16.9822 25.3 18.4388 24.2187 19.3196H25.2666C25.4565 19.3183 25.6383 19.2422 25.7726 19.1079C25.907 18.9736 25.983 18.7918 25.9844 18.6019V3.7631C25.9828 3.57365 25.9066 3.39247 25.7722 3.25896C25.6377 3.12544 25.4561 3.05039 25.2666 3.05011Z" fill="black"/>
<path d="M22.9076 22.6022L20.9266 22.6165L20.0125 23.5162L20.7244 25.476C20.7406 25.5204 20.7696 25.5591 20.8077 25.5871C20.8459 25.6151 20.8915 25.6312 20.9387 25.6332C20.986 25.6353 21.0328 25.6234 21.0733 25.5988C21.1137 25.5743 21.146 25.5383 21.166 25.4955L21.8309 24.0712L23.2495 24.7352C23.2924 24.7552 23.3402 24.7621 23.387 24.7549C23.4338 24.7478 23.4774 24.7269 23.5124 24.6949C23.5473 24.663 23.5719 24.6214 23.5832 24.5754C23.5945 24.5294 23.5918 24.4812 23.5757 24.4367L22.9076 22.6022Z" fill="black"/>
<path d="M14.6531 22.6022L13.985 24.4367C13.9688 24.4812 13.9662 24.5295 13.9775 24.5754C13.9888 24.6214 14.0134 24.663 14.0483 24.695C14.0833 24.7269 14.1269 24.7478 14.1737 24.755C14.2205 24.7621 14.2683 24.7552 14.3112 24.7352L15.7298 24.0713L16.3949 25.4959C16.4149 25.5388 16.4472 25.5748 16.4876 25.5993C16.528 25.6238 16.5748 25.6358 16.6221 25.6337C16.6693 25.6316 16.7149 25.6156 16.753 25.5876C16.7911 25.5596 16.8201 25.521 16.8363 25.4765L17.5482 23.5209L16.6294 22.6165L14.6531 22.6022Z" fill="black"/>
<path d="M22.5352 15.8731L22.5245 14.3945C22.5231 14.2064 22.4477 14.0264 22.3147 13.8933C22.1817 13.7603 22.0016 13.6849 21.8135 13.6835L20.335 13.6728L19.2822 12.6352C19.1482 12.5031 18.9676 12.4291 18.7795 12.4291C18.5913 12.4291 18.4107 12.5031 18.2767 12.6352L17.2241 13.6728L15.7456 13.6835C15.5574 13.6849 15.3774 13.7602 15.2443 13.8932C15.1113 14.0263 15.0359 14.2063 15.0346 14.3945L15.0237 15.8731L13.9862 16.9257C13.8541 17.0597 13.78 17.2403 13.78 17.4284C13.78 17.6166 13.8541 17.7972 13.9862 17.9312L15.0237 18.9839L15.0345 20.4624C15.0359 20.6506 15.1112 20.8306 15.2443 20.9637C15.3773 21.0967 15.5573 21.172 15.7455 21.1734L17.224 21.1842L18.2768 22.2218C18.4108 22.3539 18.5914 22.4279 18.7795 22.4279C18.9677 22.4279 19.1483 22.3539 19.2823 22.2218L20.3349 21.1842L21.8134 21.1734C22.0015 21.1721 22.1816 21.0967 22.3146 20.9637C22.4477 20.8307 22.523 20.6506 22.5244 20.4625L22.5352 18.9839L23.5728 17.9313C23.7049 17.7973 23.7789 17.6167 23.7789 17.4285C23.7789 17.2403 23.7049 17.0597 23.5728 16.9257L22.5352 15.8731ZM18.7796 19.3425C16.2496 19.2645 16.2501 15.5921 18.7796 15.5144C21.3095 15.5926 21.3089 19.2648 18.7796 19.3425Z" fill="black"/>
</svg>
