<svg width="115" height="116" viewBox="0 0 115 116" fill="none" xmlns="http://www.w3.org/2000/svg">
<g style="mix-blend-mode:luminosity">
<path d="M57.493 5.48303C27.9032 5.48303 3.90747 29.6378 3.90747 59.4356C3.90747 83.2682 19.2622 103.486 40.5648 110.626C43.2442 111.125 44.2226 109.459 44.2226 108.028C44.2226 106.745 44.1766 103.353 44.1485 98.8516C29.2434 102.11 26.0955 91.6174 26.0955 91.6174C23.6634 85.3831 20.1458 83.7248 20.1458 83.7248C15.2754 80.3797 20.5081 80.4475 20.5081 80.4475C25.8871 80.8296 28.714 86.0086 28.714 86.0086C33.4971 94.2505 41.262 91.8721 44.3165 90.4889C44.7985 87.0028 46.1848 84.6255 47.7202 83.2754C35.8218 81.9113 23.3074 77.2826 23.3074 56.6145C23.3074 50.7232 25.3985 45.9078 28.8274 42.1321C28.2715 40.7685 26.4362 35.2799 29.3505 27.8573C29.3505 27.8573 33.8528 26.4074 44.0878 33.3858C48.3624 32.1898 52.9446 31.593 57.5065 31.5728C62.0548 31.6004 66.6427 32.1898 70.9242 33.3932C81.1545 26.4137 85.6493 27.8647 85.6493 27.8647C88.5697 35.2941 86.7347 40.7757 86.1855 42.1384C89.6213 45.9141 91.692 50.7297 91.692 56.6216C91.692 77.3437 79.1649 81.9044 67.2276 83.2406C69.15 84.9076 70.8642 88.1975 70.8642 93.2292C70.8642 100.445 70.7975 106.261 70.7975 108.028C70.7975 109.472 71.7617 111.151 74.4815 110.62C95.7514 103.472 111.092 83.2617 111.092 59.4356C111.093 29.6375 87.0969 5.48303 57.493 5.48303Z" fill="#1E1E1E"/>
</g>
</svg>
