<svg width="76" height="264" viewBox="0 0 76 264" fill="none" xmlns="http://www.w3.org/2000/svg">
<rect x="0.446045" y="0.598145" width="75.108" height="177.695" fill="#F0BFA4"/>
<g clip-path="url(#clip0_3_76)">
<path fill-rule="evenodd" clip-rule="evenodd" d="M45.2858 27.4156C43.3529 25.4802 40.7822 24.4138 38.0431 24.4128C32.399 24.4128 27.8056 29.0058 27.8036 34.6514C27.8026 36.4562 28.2744 38.2178 29.1704 39.7702L27.7177 45.0766L33.1458 43.6527C34.6412 44.4688 36.3252 44.8983 38.0387 44.8988H38.0431C43.6863 44.8988 48.2803 40.3054 48.2822 34.6598C48.2832 31.9237 47.2192 29.3515 45.2858 27.4161V27.4156ZM38.0431 43.1697H38.0397C36.5128 43.1692 35.0149 42.7587 33.7079 41.9835L33.3971 41.7989L30.1759 42.6438L31.0356 39.5031L30.8333 39.1811C29.9815 37.826 29.5313 36.2598 29.5323 34.6519C29.5342 29.9598 33.352 26.142 38.0466 26.142C40.3197 26.143 42.4564 27.0292 44.0633 28.6381C45.6703 30.2465 46.5545 32.3852 46.5535 34.6588C46.5515 39.3514 42.7338 43.1692 38.0431 43.1692V43.1697ZM42.7112 36.796C42.4554 36.6678 41.1976 36.0492 40.9629 35.9638C40.7282 35.8783 40.5579 35.8357 40.3875 36.0919C40.2171 36.3482 39.7267 36.9246 39.5774 37.0949C39.4281 37.2658 39.2789 37.287 39.0231 37.1588C38.7673 37.0306 37.943 36.7606 36.9655 35.8891C36.205 35.2106 35.6914 34.3731 35.5422 34.1167C35.3929 33.8605 35.5265 33.722 35.6541 33.5948C35.769 33.48 35.9099 33.2959 36.038 33.1466C36.1662 32.9973 36.2084 32.8904 36.2938 32.72C36.3793 32.5491 36.3365 32.3999 36.2728 32.2717C36.2089 32.1436 35.6973 30.8842 35.4837 30.3722C35.276 29.8734 35.065 29.9411 34.9084 29.9328C34.759 29.9254 34.5887 29.9239 34.4179 29.9239C34.247 29.9239 33.9701 29.9877 33.7354 30.2441C33.5007 30.5003 32.8399 31.1194 32.8399 32.3782C32.8399 33.6371 33.7565 34.8542 33.8847 35.0251C34.0128 35.1959 35.6889 37.7799 38.2552 38.8885C38.8655 39.1521 39.3422 39.3097 39.7139 39.4275C40.3266 39.6224 40.8843 39.595 41.3252 39.5291C41.8167 39.4555 42.8389 38.9101 43.052 38.3125C43.265 37.715 43.265 37.2025 43.2012 37.0959C43.1374 36.9894 42.9666 36.9251 42.7108 36.797L42.7112 36.796Z" fill="#2C2C2C"/>
</g>
<g clip-path="url(#clip1_3_76)">
<path fill-rule="evenodd" clip-rule="evenodd" d="M48.7672 73.6556C48.7672 73.6556 48.5526 72.1403 47.8921 71.475C47.0552 70.5999 46.118 70.5942 45.6896 70.5435C42.6157 70.3196 37.9989 70.3196 37.9989 70.3196H37.9908C37.9908 70.3196 33.376 70.3196 30.3005 70.5435C29.8704 70.5958 28.9345 70.5995 28.098 71.475C27.4371 72.1403 27.227 73.6556 27.227 73.6556C27.227 73.6556 27.0083 75.4337 27.0083 77.2155V78.8817C27.0083 80.6599 27.227 82.4417 27.227 82.4417C27.227 82.4417 27.4416 83.9569 28.098 84.6235C28.9345 85.4986 30.0339 85.4701 30.5248 85.5635C32.2847 85.7314 38.0005 85.7821 38.0005 85.7821C38.0005 85.7821 42.6213 85.774 45.6953 85.5541C46.1253 85.5034 47.0608 85.4981 47.8978 84.6226C48.5586 83.9573 48.7728 82.4404 48.7728 82.4404C48.7728 82.4404 48.9915 80.6623 48.9915 78.8805V77.2143C48.9871 75.4362 48.7684 73.6544 48.7684 73.6544L48.7672 73.6556ZM35.7217 80.9033V74.725L41.6603 77.8245L35.7217 80.9033Z" fill="#2C2C2C"/>
</g>
<g clip-path="url(#clip2_3_76)">
<path d="M39.7727 121.957C40.0879 121.957 40.3221 121.698 40.3221 121.399C40.3221 121.081 40.0668 120.841 39.7727 120.841H32.7845C32.4711 120.841 32.2352 121.1 32.2352 121.399C32.2352 121.717 32.4905 121.957 32.7845 121.957H39.7727ZM42.0634 114.554L45.2503 111.13C45.3718 111.027 45.495 110.985 45.6376 111.068L48.2012 113.59C48.3033 113.714 48.3227 113.858 48.1801 114.003L44.9334 117.49L42.0634 114.554ZM43.8752 118.587L40.5897 119.277L41.0052 115.649L43.8752 118.587ZM31.7967 113.366H39.1442L38.6071 114.52H31.7967C31.184 114.52 30.6259 114.776 30.2192 115.188C29.8124 115.599 29.5624 116.164 29.5624 116.791V124.973C29.5624 125.596 29.8142 126.165 30.2192 126.576C30.6241 126.988 31.1823 127.243 31.7967 127.243H32.4517V127.245L32.4887 127.247C32.8003 127.269 33.038 127.544 33.0152 127.861L32.7933 131.099L37.0155 128.503C37.1176 128.399 37.2584 128.337 37.4152 128.337H43.9861C44.5988 128.337 45.157 128.083 45.5637 127.669C45.9687 127.258 46.2204 126.689 46.2204 126.066V120.05H47.3966V127.687C47.4582 129.41 46.7662 130.378 43.9755 130.496L38.2973 130.363L32.5345 132.845L32.5063 132.868C32.2686 133.076 31.9112 133.047 31.7069 132.804C31.6066 132.684 31.5626 132.537 31.5714 132.392L31.8443 128.396H31.7985C30.8724 128.396 30.029 128.011 29.418 127.39C28.8053 126.773 28.4268 125.916 28.4268 124.975V116.791C28.4268 115.85 28.8053 114.993 29.4163 114.372C30.0255 113.751 30.8689 113.366 31.7967 113.366ZM42.4578 125.054C42.773 125.054 43.0071 124.794 43.0071 124.496C43.0071 124.175 42.7518 123.937 42.4578 123.937H32.7845C32.4711 123.937 32.2352 124.197 32.2352 124.496C32.2352 124.814 32.4905 125.054 32.7845 125.054H42.4578ZM37.2989 118.862C37.6124 118.862 37.8483 118.603 37.8483 118.304C37.8483 118.005 37.593 117.746 37.2989 117.746H32.7845C32.4711 117.746 32.2352 118.005 32.2352 118.304C32.2352 118.622 32.4905 118.862 32.7845 118.862H37.2989Z" fill="#2C2C2C"/>
</g>
<rect x="28.446" y="154.896" width="20.7535" height="108.709" fill="#FD7D59"/>
<path d="M34.3178 169.831C34.3178 169.181 34.4332 168.579 34.664 168.023C34.9034 167.476 35.2325 166.997 35.6514 166.587C36.0789 166.176 36.5704 165.86 37.1261 165.638C37.6903 165.415 38.293 165.304 38.9342 165.304C39.5754 165.304 40.1738 165.415 40.7295 165.638C41.2937 165.86 41.7853 166.176 42.2042 166.587C42.623 166.997 42.9522 167.476 43.1915 168.023C43.4309 168.579 43.5506 169.181 43.5506 169.831C43.5506 170.558 43.4309 171.186 43.1915 171.716C42.9522 172.246 42.6273 172.716 42.217 173.127L41.2168 172.126C41.5074 171.861 41.734 171.536 41.8964 171.152C42.0588 170.776 42.14 170.335 42.14 169.831C42.14 169.386 42.0631 168.98 41.9092 168.613C41.7553 168.245 41.5331 167.925 41.2424 167.651C40.9603 167.386 40.6226 167.181 40.2294 167.035C39.8361 166.89 39.4044 166.817 38.9342 166.817C38.464 166.817 38.0323 166.89 37.6391 167.035C37.2458 167.181 36.9038 167.386 36.6132 167.651C36.3311 167.925 36.1131 168.245 35.9592 168.613C35.8053 168.98 35.7284 169.386 35.7284 169.831C35.7284 170.378 35.8096 170.84 35.972 171.216C36.143 171.601 36.3738 171.925 36.6645 172.19L35.6643 173.191C35.2454 172.78 34.9162 172.297 34.6769 171.742C34.4375 171.186 34.3178 170.549 34.3178 169.831ZM34.3178 178.914C34.3178 178.272 34.4375 177.674 34.6769 177.118C34.9162 176.563 35.2454 176.075 35.6643 175.657C36.0917 175.238 36.5833 174.909 37.1389 174.669C37.7032 174.438 38.3059 174.323 38.947 174.323C39.5882 174.323 40.1866 174.438 40.7423 174.669C41.298 174.909 41.7853 175.233 42.2042 175.644C42.6316 176.063 42.9607 176.546 43.1915 177.093C43.4309 177.648 43.5506 178.247 43.5506 178.888C43.5506 179.529 43.4309 180.123 43.1915 180.67C42.9607 181.226 42.6316 181.713 42.2042 182.132C41.7853 182.551 41.2937 182.876 40.7295 183.107C40.1738 183.346 39.5754 183.466 38.9342 183.466C38.293 183.466 37.6903 183.346 37.1261 183.107C36.5704 182.876 36.0832 182.551 35.6643 182.132C35.2454 181.722 34.9162 181.239 34.6769 180.683C34.4375 180.136 34.3178 179.546 34.3178 178.914ZM35.7284 178.888C35.7284 179.495 35.8652 180.025 36.1387 180.478C36.4123 180.94 36.7884 181.299 37.2672 181.555C37.7545 181.82 38.3144 181.953 38.947 181.953C39.4172 181.953 39.8447 181.876 40.2294 181.722C40.6226 181.577 40.9603 181.367 41.2424 181.094C41.5331 180.82 41.7553 180.495 41.9092 180.119C42.0631 179.751 42.14 179.341 42.14 178.888C42.14 178.29 42.0033 177.76 41.7297 177.298C41.4647 176.845 41.0928 176.486 40.6141 176.221C40.1353 175.964 39.5796 175.836 38.947 175.836C38.4768 175.836 38.0408 175.909 37.6391 176.054C37.2458 176.208 36.9081 176.417 36.626 176.682C36.3439 176.956 36.1216 177.281 35.9592 177.657C35.8053 178.033 35.7284 178.443 35.7284 178.888ZM34.446 185.607L43.4224 185.607L43.4224 186.633L41.7297 187.081L34.446 187.081L34.446 185.607ZM34.446 191.826L41.4604 186.453L43.4224 186.633L36.408 192.006L34.446 191.826ZM34.446 191.826L36.0233 191.377L43.4224 191.377L43.4224 192.852L34.446 192.852L34.446 191.826ZM34.446 195.44L43.4224 195.44L43.4224 196.465L41.7297 196.914L34.446 196.914L34.446 195.44ZM34.446 201.659L41.4604 196.286L43.4224 196.465L36.408 201.838L34.446 201.659ZM34.446 201.659L36.0233 201.21L43.4224 201.21L43.4224 202.685L34.446 202.685L34.446 201.659ZM34.446 205.272L43.4224 205.272L43.4224 206.747L34.446 206.747L34.446 205.272ZM34.446 206.286L35.7925 206.286L35.7925 211.312L34.446 211.312L34.446 206.286ZM38.3828 206.286L39.678 206.286L39.678 210.876L38.3828 210.876L38.3828 206.286ZM42.0759 206.286L43.4224 206.286L43.4224 211.248L42.0759 211.248L42.0759 206.286ZM34.3178 217.38C34.3178 216.73 34.4332 216.127 34.664 215.572C34.9034 215.025 35.2325 214.546 35.6514 214.136C36.0789 213.725 36.5704 213.409 37.1261 213.187C37.6903 212.964 38.293 212.853 38.9342 212.853C39.5754 212.853 40.1738 212.964 40.7295 213.187C41.2937 213.409 41.7853 213.725 42.2041 214.136C42.623 214.546 42.9522 215.025 43.1915 215.572C43.4309 216.127 43.5506 216.73 43.5506 217.38C43.5506 218.107 43.4309 218.735 43.1915 219.265C42.9522 219.795 42.6273 220.265 42.217 220.675L41.2168 219.675C41.5074 219.41 41.734 219.085 41.8964 218.701C42.0588 218.325 42.14 217.884 42.14 217.38C42.14 216.935 42.0631 216.529 41.9092 216.162C41.7553 215.794 41.5331 215.474 41.2424 215.2C40.9603 214.935 40.6226 214.73 40.2294 214.584C39.8361 214.439 39.4044 214.366 38.9342 214.366C38.464 214.366 38.0323 214.439 37.639 214.584C37.2458 214.73 36.9038 214.935 36.6132 215.2C36.3311 215.474 36.1131 215.794 35.9592 216.162C35.8053 216.529 35.7284 216.935 35.7284 217.38C35.7284 217.927 35.8096 218.389 35.972 218.765C36.143 219.15 36.3738 219.474 36.6645 219.739L35.6643 220.74C35.2454 220.329 34.9162 219.846 34.6769 219.291C34.4375 218.735 34.3178 218.098 34.3178 217.38ZM34.446 224.766L43.1659 224.766L43.1659 226.24L34.446 226.24L34.446 224.766ZM42.0759 221.842L43.4224 221.842L43.4224 229.164L42.0759 229.164L42.0759 221.842ZM34.446 237.306L43.4224 237.306L43.4224 238.332L37.28 242.063L37.28 241.396L43.4224 245.128L43.4224 246.154L34.446 246.154L34.446 244.679L40.8321 244.679L40.7423 245.013L36.19 242.243L36.19 241.217L40.7423 238.447L40.8321 238.78L34.446 238.78L34.446 237.306ZM34.446 248.742L43.4224 248.742L43.4224 250.216L34.446 250.216L34.446 248.742ZM34.446 249.755L35.7925 249.755L35.7925 254.781L34.446 254.781L34.446 249.755ZM38.3828 249.755L39.678 249.755L39.678 254.345L38.3828 254.345L38.3828 249.755ZM42.0759 249.755L43.4224 249.755L43.4224 254.717L42.0759 254.717L42.0759 249.755Z" fill="white"/>
<defs>
<clipPath id="clip0_3_76">
<rect width="20.5646" height="20.6637" fill="white" transform="translate(27.7177 24.4128)"/>
</clipPath>
<clipPath id="clip1_3_76">
<rect width="21.9828" height="21.9828" fill="white" transform="translate(27.0087 67.0593)"/>
</clipPath>
<clipPath id="clip2_3_76">
<rect width="19.8555" height="21.9828" fill="white" transform="translate(28.4268 111.025)"/>
</clipPath>
</defs>
</svg>
