<svg width="28" height="28" viewBox="0 0 28 28" fill="none" xmlns="http://www.w3.org/2000/svg">
<path d="M13.946 13.6016C16.4313 13.6016 18.446 11.5868 18.446 9.10156C18.446 6.61628 16.4313 4.60156 13.946 4.60156C11.4608 4.60156 9.44604 6.61628 9.44604 9.10156C9.44604 11.5868 11.4608 13.6016 13.946 13.6016Z" fill="#EA552B"/>
<path d="M22.946 21.4766V22.6016C22.946 22.8999 22.8275 23.1861 22.6165 23.3971C22.4056 23.608 22.1194 23.7266 21.821 23.7266H6.07104C5.77268 23.7266 5.48653 23.608 5.27555 23.3971C5.06457 23.1861 4.94604 22.8999 4.94604 22.6016V21.4766C4.94604 19.6864 5.6572 17.9695 6.92307 16.7036C8.18894 15.4377 9.90583 14.7266 11.696 14.7266H16.196C17.9863 14.7266 19.7031 15.4377 20.969 16.7036C22.2349 17.9695 22.946 19.6864 22.946 21.4766Z" fill="#EA552B"/>
</svg>
