<svg width="38" height="38" viewBox="0 0 38 38" fill="none" xmlns="http://www.w3.org/2000/svg">
<g clip-path="url(#clip0_17_1059)">
<path d="M11.3119 35.2741C11.2938 34.8044 11.2244 34.3346 11.1128 33.8739C10.6633 32.0583 9.52301 30.3992 8.11722 29.1947C8.06292 29.1466 8.00862 29.1014 7.9513 29.0562L6.68428 30.2908C7.66169 31.0375 8.3676 32.0613 8.65721 33.0158C8.81408 33.5337 8.85933 34.0426 8.77184 34.5002C8.67229 35.0242 8.41285 35.4728 7.9694 35.798C7.86985 35.8703 7.76426 35.9335 7.64963 35.9907C8.21677 36.2708 8.75073 36.4454 9.21228 36.4815C9.67686 36.5207 10.0841 36.4364 10.428 36.2286C10.7568 36.0299 11.0495 35.7137 11.3119 35.2741ZM24.3079 22.4289C24.1873 22.3656 24.0907 22.2753 24.0213 22.1669L23.783 22.4018C23.8705 22.459 23.9459 22.5343 24.0032 22.6246C25.2341 24.5637 25.943 26.536 26.0093 28.5474C26.0757 30.5678 25.4935 32.5972 24.142 34.6448C23.9157 34.988 23.4572 35.0814 23.1133 34.8556C22.7694 34.6297 22.6759 34.172 22.9021 33.8288C24.0756 32.0522 24.5824 30.3088 24.5251 28.5925C24.4678 26.8672 23.8403 25.1449 22.7483 23.4225L20.8568 25.2834C20.8387 25.2262 20.8206 25.172 20.8025 25.1147L20.6577 25.2563L12.6966 35.8522C12.2893 36.5959 11.7886 37.141 11.1973 37.4963C10.5728 37.8696 9.87294 38.0232 9.10067 37.96C7.92113 37.8636 6.42786 37.1289 5.0281 36.06C4.98285 36.0329 4.9376 35.9998 4.9014 35.9606C4.41873 35.5842 3.95113 35.1717 3.51069 34.7321C2.51216 33.7354 1.64636 32.5912 1.10939 31.453C0.530181 30.2275 0.322027 28.99 0.702133 27.891C0.946487 27.1864 1.42313 26.5601 2.18334 26.0602L13.3422 17.5841L19.3786 11.1434L26.4739 1.38753C26.5946 1.22192 26.7696 1.12256 26.9566 1.08944C27.9943 0.890706 29.0502 0.965983 30.0759 1.24902C31.8376 1.73381 33.5059 2.83586 34.8061 4.22396C36.1093 5.61507 37.0566 7.30729 37.3793 8.96338C37.5543 9.86068 37.5453 10.752 37.313 11.589C37.2677 11.7577 37.1652 11.8992 37.0324 11.9955V11.9985L26.3533 19.7099L25.9249 20.1284C25.9249 20.1856 25.9219 20.2428 25.9188 20.3L25.0591 21.1462C26.6338 21.9682 27.9099 23.001 28.842 24.2807C29.7953 25.5905 30.3836 27.1412 30.5495 28.9659C30.5857 29.3724 30.284 29.7337 29.8768 29.7699C29.4695 29.806 29.1075 29.5049 29.0713 29.0984C28.9295 27.5507 28.4408 26.2439 27.6444 25.1509C26.8389 24.0518 25.7137 23.1515 24.3079 22.4289ZM6.70539 28.1951C5.69178 27.6109 4.6299 27.2767 3.64645 27.2827C3.39606 27.2857 3.14869 27.3098 2.90735 27.361C2.48803 27.6561 2.22859 28.0024 2.09586 28.3787C1.85452 29.0743 2.02044 29.9325 2.44278 30.8237C2.90433 31.8053 3.66756 32.802 4.55448 33.6903C4.92553 34.0606 5.31771 34.4129 5.71591 34.7291C6.40071 34.8435 6.84416 34.7773 7.08852 34.5966C7.20617 34.5093 7.27857 34.3798 7.30874 34.2232C7.35097 34.0004 7.32382 33.7324 7.23332 33.4434C6.96785 32.5671 6.2016 31.6066 5.1548 31.0676C4.78978 30.8809 4.64498 30.4353 4.83201 30.071C4.87123 29.9957 4.9195 29.9325 4.97682 29.8783L6.70539 28.1951ZM20.1147 23.7116C18.9321 21.7725 16.7782 19.7008 14.6906 18.3037L14.401 18.6139C14.3648 18.659 14.3196 18.7012 14.2713 18.7403L4.829 25.9127C6.00552 26.1355 7.20617 26.6805 8.30425 27.4604L8.3314 27.4814L8.33442 27.4845C8.58782 27.6651 8.83519 27.8608 9.07653 28.0656C10.7025 29.4567 12.0239 31.3868 12.5488 33.5156L12.5578 33.5518L19.4721 24.3499C19.4993 24.3078 19.5325 24.2686 19.5717 24.2325L20.1147 23.7116ZM19.8432 12.8085C22.5311 14.1364 24.7725 16.2893 25.59 18.4272L35.9374 10.9537C36.0429 10.4147 36.0309 9.83659 35.9162 9.24341C35.6478 7.86434 34.8363 6.43107 33.7171 5.23568C32.5918 4.03426 31.1709 3.08577 29.6867 2.67928C28.9627 2.48055 28.2266 2.4113 27.4996 2.50765L20.5581 12.0407L20.5551 12.0377C20.537 12.0618 20.5189 12.0859 20.4948 12.1099L19.8432 12.8085Z" fill="#EA552B"/>
</g>
<defs>
<clipPath id="clip0_17_1059">
<rect width="37" height="37" fill="white" transform="translate(0.5 0.978027)"/>
</clipPath>
</defs>
</svg>
