<svg width="297" height="297" viewBox="0 0 297 297" fill="none" xmlns="http://www.w3.org/2000/svg">
<path d="M148 286C223.663 286 285 224.663 285 149C285 73.337 223.663 12 148 12C72.337 12 11 73.337 11 149C11 224.663 72.337 286 148 286Z" fill="#FBE7E0"/>
<g opacity="0.2">
<path d="M147.346 177.739C140.125 184.96 119.098 235.933 119.098 235.933C116.012 241.539 120.629 245.608 131.131 240.276L168.864 219.695C189.195 208.395 193.125 205.444 192.856 182.44L189.074 155.279C187.779 145.974 180.814 144.266 173.593 151.487L147.346 177.739Z" fill="#231F20"/>
</g>
<g opacity="0.2">
<path d="M124.031 154.425C116.81 161.645 65.8375 182.672 65.8375 182.672C60.2317 185.758 56.1618 181.141 61.4939 170.639L82.0751 132.906C93.375 112.575 96.3265 108.645 119.33 108.914L146.492 112.696C155.796 113.991 157.504 120.956 150.283 128.177L124.031 154.425Z" fill="#231F20"/>
</g>
<path d="M147.346 168.458C140.125 175.679 119.098 226.651 119.098 226.651C116.012 232.257 120.629 236.327 131.131 230.995L168.864 210.414C189.195 199.114 193.125 196.163 192.856 173.159L189.074 145.997C187.779 136.693 180.814 134.985 173.593 142.206L147.346 168.458Z" fill="#EA552B"/>
<path d="M124.031 145.143C116.81 152.364 65.8375 173.391 65.8375 173.391C60.2317 176.477 56.1618 171.859 61.4939 161.358L82.0751 123.625C93.375 103.294 96.3265 99.3635 119.33 99.6327L146.492 103.415C155.796 104.71 157.504 111.675 150.283 118.896L124.031 145.143Z" fill="#EA552B"/>
<g opacity="0.2">
<path d="M96.9993 177.103C120.546 153.557 140.329 160.741 140.329 160.741C140.329 160.741 147.517 180.524 123.966 204.07C100.415 227.617 62.2875 244.722 59.3175 241.752C56.4403 238.87 73.4482 200.65 96.9993 177.103Z" fill="#231F20"/>
</g>
<path d="M96.9993 167.822C120.546 144.276 140.329 151.459 140.329 151.459C140.329 151.459 147.517 171.242 123.966 194.789C100.415 218.335 62.2875 235.441 59.3175 232.471C56.4403 229.589 73.4482 191.369 96.9993 167.822Z" fill="#E0995E"/>
<path d="M116.685 148.132C140.231 124.585 160.014 131.769 160.014 131.769C160.014 131.769 167.203 151.552 143.652 175.098C120.1 198.645 81.973 215.75 79.003 212.78C76.1258 209.903 93.1384 171.678 116.685 148.132Z" fill="#F5CF87"/>
<g opacity="0.2">
<path d="M200.889 165.655C164.646 201.898 109.084 191.981 109.084 191.981C109.084 191.981 99.1665 136.424 135.41 100.176C171.653 63.9279 226.566 60.0761 233.777 67.2877C240.771 74.2811 237.137 129.412 200.889 165.655Z" fill="#231F20"/>
</g>
<path d="M200.889 156.374C164.646 192.617 109.084 182.7 109.084 182.7C109.084 182.7 99.1665 127.142 135.41 90.8945C171.653 54.6466 226.566 50.7949 233.777 58.0064C240.771 64.9999 237.137 120.13 200.889 156.374Z" fill="#E0995E"/>
<g opacity="0.2">
<path d="M95.9599 211.672C92.3355 215.296 89.7414 218.577 86.1171 214.952C82.4928 211.328 85.7737 208.734 89.398 205.11L135.336 146.044C138.96 142.42 154.682 139.139 158.307 142.763C161.931 146.387 158.65 162.11 155.026 165.734L95.9599 211.672Z" fill="#231F20"/>
</g>
<path d="M95.9599 202.39C92.3355 206.015 89.7414 209.296 86.1171 205.671C82.4928 202.047 85.7737 199.453 89.398 195.828L135.336 136.763C138.96 133.138 154.682 129.857 158.307 133.482C161.931 137.106 158.65 152.828 155.026 156.453L95.9599 202.39Z" fill="#EA552B"/>
<g opacity="0.2">
<path d="M195.312 132.71C202.561 125.461 202.561 113.708 195.312 106.459C188.063 99.2099 176.31 99.2099 169.061 106.459C161.812 113.708 161.812 125.461 169.061 132.71C176.31 139.959 188.063 139.959 195.312 132.71Z" fill="#231F20"/>
</g>
<g opacity="0.2">
<path d="M215 99.8953C218.625 96.2708 218.625 90.3943 215 86.7697C211.376 83.1452 205.499 83.1452 201.875 86.7697C198.25 90.3943 198.25 96.2708 201.875 99.8953C205.499 103.52 211.376 103.52 215 99.8953Z" fill="#231F20"/>
</g>
<path d="M195.312 123.429C202.561 116.18 202.561 104.427 195.312 97.1777C188.063 89.9286 176.31 89.9286 169.061 97.1777C161.812 104.427 161.812 116.18 169.061 123.429C176.31 130.678 188.063 130.678 195.312 123.429Z" fill="#FBE7E0"/>
<path d="M215 90.614C218.625 86.9895 218.625 81.113 215 77.4885C211.376 73.864 205.499 73.864 201.875 77.4885C198.25 81.113 198.25 86.9895 201.875 90.614C205.499 94.2386 211.376 94.2386 215 90.614Z" fill="#FBE7E0"/>
</svg>
