<svg width="128" height="128" viewBox="0 0 128 128" fill="none" xmlns="http://www.w3.org/2000/svg">
<path d="M104.4 16.2001C86.5 1.20011 61.8 -0.299891 42.6 10.5001C42.5 10.5001 42.5 10.5001 42.4 10.6001C42.3 10.6001 42.3 10.7001 42.2 10.7001C36.8 13.8001 31.8 17.9001 27.5 23.0001C18 34.3001 14 49.0001 15.5 66.9001C17.2 87.8001 23.5 103.4 27.1 110.8C29.1 114.9 32.9 117.7 37.3 118.5C38 118.6 38.8 118.7 39.5 118.7C41.9 118.7 44.3 118.1 46.4 116.9L81.1 97.0001C82.3 96.3001 83.6 96.0001 85 96.0001H99C100.1 96.0001 101.1 95.4001 101.6 94.5001C101.9 94.1001 107.8 83.7001 111.6 73.2001C126.2 33.2001 106.4 17.7001 104.4 16.2001ZM24.7 69.1001C24.6 69.1001 24.5 69.1001 24.4 69.1001C22.9 69.1001 21.5 67.9001 21.4 66.3001C21.2 63.9001 21.1 61.6001 21.1 59.3001C21.1 57.7001 22.5 56.3001 24.1 56.3001C25.8 56.3001 27.1 57.7001 27.1 59.3001C27.1 61.4001 27.2 63.6001 27.4 65.8001C27.6 67.5001 26.4 68.9001 24.7 69.1001ZM26.1 47.8001C25.8 47.8001 25.6 47.8001 25.3 47.7001C23.7 47.3001 22.8 45.6001 23.2 44.0001C25 37.5001 28 31.7001 32.1 26.8001C33.2 25.5001 35.1 25.4001 36.3 26.4001C37.6 27.5001 37.7 29.4001 36.7 30.6001C33.1 34.9001 30.5 39.9001 29 45.5001C28.7 47.0001 27.5 47.8001 26.1 47.8001ZM106 71.1001C103.2 78.8001 99 86.7001 97.3 90.0001H85C82.6 90.0001 80.2 90.6001 78.1 91.8001L43.4 111.6C41.8 112.5 40 112.8 38.2 112.5C35.7 112.1 33.5 110.5 32.4 108.2C31.2 105.8 29.8 102.5 28.3 98.4001L76.7 61.0001C79.7 58.7001 81.5 55.2001 81.7 51.4001C81.9 47.6001 80.4 43.9001 77.7 41.3001L49.1 13.9001C65.6 6.30011 85.8 8.40011 100.6 20.8001C100.7 20.9001 100.8 20.9001 100.8 21.0001C101 21.1001 119.4 34.2001 106 71.1001Z" fill="#EA552B"/>
<path d="M99 108.2C98.2 106.8 96.3 106.3 94.9 107.1C93.5 107.9 93 109.8 93.8 111.2L102 125.5C102.6 126.5 103.6 127 104.6 127C105.1 127 105.6 126.9 106.1 126.6C107.5 125.8 108 123.9 107.2 122.5L99 108.2Z" fill="#EA552B"/>
</svg>
