<svg width="116" height="116" viewBox="0 0 116 116" fill="none" xmlns="http://www.w3.org/2000/svg">
<g style="mix-blend-mode:luminosity">
<circle cx="58.0833" cy="59" r="53.75" fill="#1E1E1E"/>
<path d="M92.5378 65.686H90.5604C90.3967 59.3579 88.2949 53.2253 84.5293 48.0882C80.7637 42.9511 75.5092 39.0481 69.4513 36.8885H85.8357C86.0736 37.7933 86.6392 38.5819 87.4267 39.1064C88.2142 39.631 89.1694 39.8554 90.1132 39.7376C91.0571 39.6198 91.9248 39.168 92.5538 38.4668C93.1828 37.7656 93.5298 36.8631 93.5298 35.9285C93.5298 34.994 93.1828 34.0915 92.5538 33.3903C91.9248 32.6891 91.0571 32.2372 90.1132 32.1195C89.1694 32.0017 88.2142 32.2261 87.4267 32.7506C86.6392 33.2752 86.0736 34.0638 85.8357 34.9686H62.2424V33.0488C62.2424 32.7942 62.1394 32.55 61.9562 32.37C61.7729 32.19 61.5243 32.0889 61.2651 32.0889H55.4015C55.1423 32.0889 54.8937 32.19 54.7104 32.37C54.5272 32.55 54.4242 32.7942 54.4242 33.0488V34.9686H30.8309C30.593 34.0638 30.0273 33.2752 29.2399 32.7506C28.4524 32.2261 27.4972 32.0017 26.5534 32.1195C25.6095 32.2372 24.7418 32.6891 24.1128 33.3903C23.4838 34.0915 23.1368 34.994 23.1368 35.9285C23.1368 36.8631 23.4838 37.7656 24.1128 38.4668C24.7418 39.168 25.6095 39.6198 26.5534 39.7376C27.4972 39.8554 28.4524 39.631 29.2399 39.1064C30.0273 38.5819 30.593 37.7933 30.8309 36.8885H47.2151C41.1572 39.0481 35.9027 42.9511 32.1371 48.0882C28.3715 53.2253 26.2697 59.3579 26.106 65.686H24.1288C23.8696 65.686 23.621 65.7871 23.4377 65.9671C23.2544 66.1471 23.1515 66.3913 23.1515 66.6459V72.4054C23.1515 72.66 23.2544 72.9041 23.4377 73.0841C23.621 73.2642 23.8696 73.3653 24.1288 73.3653H29.9924C30.2516 73.3653 30.5002 73.2642 30.6834 73.0841C30.8667 72.9041 30.9697 72.66 30.9697 72.4054V66.6459C30.9697 66.3913 30.8667 66.1471 30.6834 65.9671C30.5002 65.7871 30.2516 65.686 29.9924 65.686H28.0607C28.2568 58.6185 31.0236 51.8537 35.8599 46.6173C40.6962 41.3808 47.282 38.0191 54.4242 37.141V38.8083C54.4242 39.0629 54.5272 39.307 54.7104 39.4871C54.8937 39.6671 55.1423 39.7682 55.4015 39.7682H61.2651C61.5243 39.7682 61.7729 39.6671 61.9562 39.4871C62.1394 39.307 62.2424 39.0629 62.2424 38.8083V37.141C69.3846 38.0191 75.9704 41.3808 80.8067 46.6173C85.643 51.8537 88.4098 58.6185 88.6059 65.686H86.6742C86.415 65.686 86.1664 65.7871 85.9832 65.9671C85.7999 66.1471 85.6969 66.3913 85.6969 66.6459V72.4054C85.6969 72.66 85.7999 72.9041 85.9832 73.0841C86.1664 73.2642 86.415 73.3653 86.6742 73.3653H92.5378C92.797 73.3653 93.0456 73.2642 93.2289 73.0841C93.4122 72.9041 93.5151 72.66 93.5151 72.4054V66.6459C93.5151 66.3913 93.4122 66.1471 93.2289 65.9671C93.0456 65.7871 92.797 65.686 92.5378 65.686Z" fill="#F4E2D8"/>
<path d="M61.162 44.1384C61.0636 43.945 60.9015 43.7898 60.7021 43.6982C60.5026 43.6065 60.2775 43.5837 60.0633 43.6334C59.849 43.683 59.658 43.8024 59.5214 43.972C59.3848 44.1416 59.3105 44.3515 59.3105 44.5678V75.6787C59.3106 75.8645 59.3655 76.0463 59.4687 76.202C59.5718 76.3578 59.7188 76.4808 59.8917 76.5561C60.7158 76.9079 61.3913 77.5279 61.8045 78.3117C62.2177 79.0954 62.3434 79.995 62.1605 80.8592C61.9775 81.7233 61.4971 82.4991 60.8 83.056C60.103 83.613 59.2318 83.9171 58.3333 83.9171C57.4347 83.9171 56.5636 83.613 55.8665 83.056C55.1695 82.4991 54.689 81.7233 54.5061 80.8592C54.3231 79.995 54.4488 79.0954 54.862 78.3117C55.2753 77.5279 55.9508 76.9079 56.7748 76.5561C56.9477 76.4808 57.0947 76.3578 57.1979 76.202C57.301 76.0463 57.356 75.8645 57.356 75.6787V44.5678C57.3561 44.3515 57.2817 44.1416 57.1451 43.972C57.0085 43.8024 56.8176 43.683 56.6033 43.6334C56.389 43.5837 56.1639 43.6065 55.9645 43.6982C55.7651 43.7898 55.603 43.945 55.5046 44.1384L36.9364 80.6153C36.8686 80.7486 36.8333 80.8956 36.8333 81.0446C36.8333 81.1937 36.8686 81.3407 36.9364 81.474L44.0473 95.4434H72.6192L79.7302 81.474C79.798 81.3407 79.8333 81.1937 79.8333 81.0446C79.8333 80.8956 79.798 80.7486 79.7302 80.6153L61.162 44.1384Z" fill="#F4E2D8"/>
<path d="M74.9469 97.3632H41.7196C41.1799 97.3632 40.7424 97.7929 40.7424 98.3231V104.083C40.7424 104.613 41.1799 105.042 41.7196 105.042H74.9469C75.4866 105.042 75.9242 104.613 75.9242 104.083V98.3231C75.9242 97.7929 75.4866 97.3632 74.9469 97.3632Z" fill="#F4E2D8"/>
<path d="M43.6742 113.682C43.6742 113.936 43.7772 114.181 43.9604 114.361C44.1437 114.541 44.3923 114.642 44.6515 114.642H72.0151C72.2743 114.642 72.5229 114.541 72.7061 114.361C72.8894 114.181 72.9924 113.936 72.9924 113.682V106.962H43.6742V113.682Z" fill="#F4E2D8"/>
</g>
</svg>
