<svg width="166" height="166" viewBox="0 0 166 166" fill="none" xmlns="http://www.w3.org/2000/svg">
<circle cx="10.946" cy="10.6016" r="10.5" fill="#EA552B"/>
<circle cx="46.946" cy="10.6016" r="10.5" fill="#EA552B"/>
<circle cx="82.946" cy="10.6016" r="10.5" fill="#EA552B"/>
<circle cx="118.946" cy="10.6016" r="10.5" fill="#EA552B"/>
<circle cx="154.946" cy="10.6016" r="10.5" fill="#EA552B"/>
<circle cx="10.946" cy="46.6016" r="10.5" fill="#EA552B"/>
<circle cx="46.946" cy="46.6016" r="10.5" fill="#EA552B"/>
<circle cx="82.946" cy="46.6016" r="10.5" fill="#EA552B"/>
<circle cx="118.946" cy="46.6016" r="10.5" fill="#EA552B"/>
<circle cx="154.946" cy="46.6016" r="10.5" fill="#EA552B"/>
<circle cx="10.946" cy="82.6016" r="10.5" fill="#EA552B"/>
<circle cx="46.946" cy="82.6016" r="10.5" fill="#EA552B"/>
<circle cx="82.946" cy="82.6016" r="10.5" fill="#EA552B"/>
<circle cx="118.946" cy="82.6016" r="10.5" fill="#EA552B"/>
<circle cx="154.946" cy="82.6016" r="10.5" fill="#EA552B"/>
<circle cx="10.946" cy="118.602" r="10.5" fill="#EA552B"/>
<circle cx="46.946" cy="118.602" r="10.5" fill="#EA552B"/>
<circle cx="82.946" cy="118.602" r="10.5" fill="#EA552B"/>
<circle cx="118.946" cy="118.602" r="10.5" fill="#EA552B"/>
<circle cx="154.946" cy="118.602" r="10.5" fill="#EA552B"/>
<circle cx="10.946" cy="154.602" r="10.5" fill="#EA552B"/>
<circle cx="46.946" cy="154.602" r="10.5" fill="#EA552B"/>
<circle cx="82.946" cy="154.602" r="10.5" fill="#EA552B"/>
<circle cx="118.946" cy="154.602" r="10.5" fill="#EA552B"/>
<circle cx="154.946" cy="154.602" r="10.5" fill="#EA552B"/>
</svg>
