<svg width="115" height="118" viewBox="0 0 115 118" fill="none" xmlns="http://www.w3.org/2000/svg">
<g style="mix-blend-mode:luminosity">
<circle cx="57.25" cy="59.3516" r="53.75" fill="#1E1E1E"/>
<g clip-path="url(#clip0_25_63)">
<path d="M91.0625 58.5391H78.8579V60.4141H91.0625V58.5391Z" fill="#F4E2D8"/>
<path d="M91.0625 62.2891H78.8579V99.7891H91.0625V62.2891Z" fill="#F4E2D8"/>
<path d="M91.0625 101.664H78.8579V103.539H91.0625V101.664Z" fill="#F4E2D8"/>
<path d="M80.892 113.852C80.892 114.1 80.9992 114.339 81.1899 114.514C81.3806 114.69 81.6393 114.789 81.9091 114.789H88.0113C88.2811 114.789 88.5398 114.69 88.7305 114.514C88.9212 114.339 89.0284 114.1 89.0284 113.852V111.977H80.892V113.852Z" fill="#F4E2D8"/>
<path d="M90.6095 56.6641L85.9773 49.8322V46.3516C85.9773 46.1029 85.8701 45.8645 85.6794 45.6887C85.4887 45.5128 85.23 45.4141 84.9602 45.4141C84.6905 45.4141 84.4318 45.5128 84.2411 45.6887C84.0503 45.8645 83.9432 46.1029 83.9432 46.3516V49.8322L79.3109 56.6641H90.6095Z" fill="#F4E2D8"/>
<path d="M97.1648 83.8516C96.0862 83.8526 95.0521 84.248 94.2894 84.9511C93.5267 85.6541 93.0977 86.6073 93.0966 87.6016V105.414H78.8579V109.164C78.8579 109.413 78.9651 109.651 79.1558 109.827C79.3466 110.003 79.6052 110.102 79.875 110.102H90.0454C90.3152 110.102 90.5739 110.003 90.7646 109.827C90.9553 109.651 91.0625 109.413 91.0625 109.164V107.289H94.1136C94.3834 107.289 94.6421 107.19 94.8328 107.014C95.0235 106.839 95.1307 106.6 95.1307 106.352V87.6016C95.1313 87.1045 95.3458 86.6279 95.7271 86.2764C96.1085 85.9249 96.6255 85.7271 97.1648 85.7266C97.4345 85.7266 97.6932 85.6278 97.8839 85.452C98.0747 85.2762 98.1818 85.0377 98.1818 84.7891C98.1818 84.5404 98.0747 84.302 97.8839 84.1261C97.6932 83.9503 97.4345 83.8516 97.1648 83.8516Z" fill="#F4E2D8"/>
<path d="M34.108 102.602H38.1761V37.9141C38.1761 37.6654 38.069 37.427 37.8782 37.2511C37.6875 37.0753 37.4288 36.9766 37.1591 36.9766H32.0739C30.4554 36.9766 28.9033 37.5692 27.7589 38.6241C26.6145 39.679 25.9716 41.1097 25.9716 42.6016V110.102C25.9716 108.112 26.8288 106.205 28.3547 104.798C29.8805 103.392 31.9501 102.602 34.108 102.602Z" fill="#F4E2D8"/>
<path d="M62.5852 53.8516H40.2102V66.9766H62.5852V53.8516Z" fill="#F4E2D8"/>
<path d="M70.6968 42.476H40.3777V52.0102H63.6224C63.8904 52.0102 64.1475 52.1107 64.337 52.2895C64.5265 52.4683 64.633 52.7108 64.633 52.9636V68.2184C64.633 68.4713 64.5265 68.7138 64.337 68.8926C64.1475 69.0714 63.8904 69.1719 63.6224 69.1719H40.3777V74.8924H63.6224C63.8904 74.8924 64.1475 74.9929 64.337 75.1717C64.5265 75.3505 64.633 75.593 64.633 75.8458C64.633 76.0987 64.5265 76.3412 64.337 76.52C64.1475 76.6988 63.8904 76.7993 63.6224 76.7993H40.3777V82.5198H63.6224C63.8904 82.5198 64.1475 82.6203 64.337 82.7991C64.5265 82.9779 64.633 83.2204 64.633 83.4732C64.633 83.7261 64.5265 83.9686 64.337 84.1474C64.1475 84.3262 63.8904 84.4267 63.6224 84.4267H40.3777V90.1472H63.6224C63.8904 90.1472 64.1475 90.2477 64.337 90.4265C64.5265 90.6053 64.633 90.8478 64.633 91.1006C64.633 91.3535 64.5265 91.596 64.337 91.7748C64.1475 91.9536 63.8904 92.0541 63.6224 92.0541H40.3777V97.7746H63.6224C63.8904 97.7746 64.1475 97.8751 64.337 98.0539C64.5265 98.2327 64.633 98.4752 64.633 98.728C64.633 98.9809 64.5265 99.2234 64.337 99.4022C64.1475 99.581 63.8904 99.6815 63.6224 99.6815H40.3777V104.449C40.3777 104.701 40.2712 104.944 40.0817 105.123C39.8922 105.302 39.6351 105.402 39.3671 105.402H34.568C32.9606 105.379 31.406 105.944 30.2292 106.977C29.0523 108.01 28.3442 109.432 28.2529 110.947C28.2279 111.712 28.3662 112.475 28.6595 113.189C28.9529 113.904 29.3953 114.555 29.9606 115.105C30.5259 115.655 31.2025 116.092 31.9503 116.391C32.6981 116.689 33.5018 118.984 34.3139 118.984H75.75L75.75 47.2431C75.75 45.9788 75.2176 44.7662 74.27 43.8722C73.3223 42.9782 72.037 42.476 70.6968 42.476Z" fill="#F4E2D8"/>
<path d="M23.9375 42.6016H21.9034C20.5547 42.6016 19.2613 43.0954 18.3076 43.9745C17.3539 44.8536 16.8182 46.0459 16.8182 47.2891V111.039C16.8182 112.282 17.3539 113.475 18.3076 114.354C19.2613 115.233 20.5547 115.727 21.9034 115.727H25.9818C24.6534 114.107 23.9356 112.132 23.9375 110.102V42.6016Z" fill="#F4E2D8"/>
</g>
</g>
<defs>
<clipPath id="clip0_25_63">
<rect width="89.5" height="82.5" fill="white" transform="translate(12.75 35.1016)"/>
</clipPath>
</defs>
</svg>
