<svg width="28" height="28" viewBox="0 0 28 28" fill="none" xmlns="http://www.w3.org/2000/svg">
<g clip-path="url(#clip0_25_138)">
<path d="M13.9427 0.941895C8.82685 0.941895 4.66315 5.10726 4.66315 10.2231C4.66314 19.2249 13.4203 26.0682 13.4203 26.0682C13.728 26.3132 14.1641 26.3132 14.4717 26.0682C14.4717 26.0682 23.2306 19.2249 23.2306 10.2231C23.2306 5.10726 19.0586 0.941895 13.9427 0.941895ZM13.9427 6.00604C16.2627 6.00604 18.1664 7.9032 18.1664 10.2231C18.1665 12.5431 16.2627 14.4452 13.9427 14.4452C11.6228 14.4452 9.72563 12.5431 9.72565 10.2231C9.72565 7.9032 11.6228 6.00604 13.9427 6.00604Z" fill="black"/>
</g>
<defs>
<clipPath id="clip0_25_138">
<rect width="27" height="27" fill="white" transform="translate(0.446045 0.101562)"/>
</clipPath>
</defs>
</svg>
