<svg width="28" height="28" viewBox="0 0 28 28" fill="none" xmlns="http://www.w3.org/2000/svg">
<path d="M14.7223 13.6691C14.5156 13.8556 14.247 13.9589 13.9686 13.9589C13.6901 13.9589 13.4215 13.8556 13.2148 13.6691L3.6748 4.99531C4.04916 4.73888 4.4923 4.60162 4.94605 4.60156H22.9461C23.3998 4.60162 23.843 4.73888 24.2173 4.99531L14.7223 13.6691Z" fill="black"/>
<path d="M25.196 7.14404V19.2265C25.196 20.1216 24.8405 20.9801 24.2075 21.613C23.5746 22.246 22.7162 22.6015 21.821 22.6015H6.07104C5.17594 22.6015 4.31749 22.246 3.68456 21.613C3.05162 20.9801 2.69604 20.1216 2.69604 19.2265V7.14404L12.461 16.054C12.8729 16.4117 13.4006 16.6076 13.946 16.6053C14.4983 16.6042 15.0309 16.3999 15.4423 16.0315L25.196 7.14404Z" fill="black"/>
</svg>
