<svg width="116" height="115" viewBox="0 0 116 115" fill="none" xmlns="http://www.w3.org/2000/svg">
<g style="mix-blend-mode:luminosity">
<circle cx="57.9166" cy="59.3687" r="53.75" fill="#1E1E1E"/>
<g clip-path="url(#clip0_24_32)">
<path d="M89.2369 78.8724C89.5788 78.8724 89.9067 78.7342 90.1484 78.488C90.3902 78.2419 90.526 77.908 90.526 77.5599V42.1224C90.526 41.7743 90.3902 41.4405 90.1484 41.1944C89.9067 40.9482 89.5788 40.8099 89.2369 40.8099H27.3619C27.0201 40.8099 26.6922 40.9482 26.4504 41.1944C26.2087 41.4405 26.0729 41.7743 26.0729 42.1224V77.5599C26.0729 77.908 26.2087 78.2419 26.4504 78.488C26.6922 78.7342 27.0201 78.8724 27.3619 78.8724H89.2369ZM82.7916 64.4349H63.4557C63.1138 64.4349 62.7859 64.2967 62.5442 64.0505C62.3024 63.8044 62.1666 63.4705 62.1666 63.1224C62.1666 62.7743 62.3024 62.4405 62.5442 62.1944C62.7859 61.9482 63.1138 61.8099 63.4557 61.8099H82.7916C83.1335 61.8099 83.4614 61.9482 83.7031 62.1944C83.9449 62.4405 84.0807 62.7743 84.0807 63.1224C84.0807 63.4705 83.9449 63.8044 83.7031 64.0505C83.4614 64.2967 83.1335 64.4349 82.7916 64.4349ZM84.0807 69.6849C84.0807 70.033 83.9449 70.3669 83.7031 70.613C83.4614 70.8592 83.1335 70.9974 82.7916 70.9974H63.4557C63.1138 70.9974 62.7859 70.8592 62.5442 70.613C62.3024 70.3669 62.1666 70.033 62.1666 69.6849C62.1666 69.3368 62.3024 69.003 62.5442 68.7569C62.7859 68.5107 63.1138 68.3724 63.4557 68.3724H82.7916C83.1335 68.3724 83.4614 68.5107 83.7031 68.7569C83.9449 69.003 84.0807 69.3368 84.0807 69.6849ZM82.7916 57.8724H63.4557C63.1138 57.8724 62.7859 57.7342 62.5442 57.488C62.3024 57.2419 62.1666 56.908 62.1666 56.5599C62.1666 56.2118 62.3024 55.878 62.5442 55.6319C62.7859 55.3857 63.1138 55.2474 63.4557 55.2474H82.7916C83.1335 55.2474 83.4614 55.3857 83.7031 55.6319C83.9449 55.878 84.0807 56.2118 84.0807 56.5599C84.0807 56.908 83.9449 57.2419 83.7031 57.488C83.4614 57.7342 83.1335 57.8724 82.7916 57.8724ZM82.7916 51.3099H63.4557C63.1138 51.3099 62.7859 51.1717 62.5442 50.9255C62.3024 50.6794 62.1666 50.3455 62.1666 49.9974C62.1666 49.6493 62.3024 49.3155 62.5442 49.0694C62.7859 48.8232 63.1138 48.6849 63.4557 48.6849H82.7916C83.1335 48.6849 83.4614 48.8232 83.7031 49.0694C83.9449 49.3155 84.0807 49.6493 84.0807 49.9974C84.0807 50.3455 83.9449 50.6794 83.7031 50.9255C83.4614 51.1717 83.1335 51.3099 82.7916 51.3099ZM58.2994 49.9974V69.6849C58.2994 70.033 58.1636 70.3669 57.9219 70.613C57.6801 70.8592 57.3523 70.9974 57.0104 70.9974H33.8073C33.4654 70.9974 33.1375 70.8592 32.8957 70.613C32.654 70.3669 32.5182 70.033 32.5182 69.6849V49.9974C32.5182 49.6493 32.654 49.3155 32.8957 49.0694C33.1375 48.8232 33.4654 48.6849 33.8073 48.6849H57.0104C57.3523 48.6849 57.6801 48.8232 57.9219 49.0694C58.1636 49.3155 58.2994 49.6493 58.2994 49.9974ZM95.6823 35.5599C95.6823 36.2561 95.4106 36.9238 94.9271 37.4161C94.4436 37.9084 93.7879 38.1849 93.1041 38.1849H23.4948C22.811 38.1849 22.1552 37.9084 21.6717 37.4161C21.1882 36.9238 20.9166 36.2561 20.9166 35.5599C20.9166 34.8637 21.1882 34.1961 21.6717 33.7038C22.1552 33.2115 22.811 32.9349 23.4948 32.9349H93.1041C93.7879 32.9349 94.4436 33.2115 94.9271 33.7038C95.4106 34.1961 95.6823 34.8637 95.6823 35.5599ZM95.6823 84.1224C95.6823 84.8186 95.4106 85.4863 94.9271 85.9786C94.4436 86.4709 93.7879 86.7474 93.1041 86.7474H60.0719L81.1507 109.471C81.2677 109.596 81.3593 109.744 81.4203 109.905C81.4812 110.066 81.5103 110.238 81.5058 110.411C81.5013 110.584 81.4633 110.754 81.3941 110.912C81.3248 111.07 81.2257 111.212 81.1023 111.331C80.9789 111.449 80.8337 111.542 80.675 111.603C80.5164 111.665 80.3473 111.694 80.1777 111.688C80.008 111.683 79.8411 111.644 79.6864 111.572C79.5317 111.501 79.3924 111.4 79.2764 111.274L59.5885 90.0487V114.864C59.5885 115.212 59.4527 115.546 59.2109 115.792C58.9692 116.038 58.6413 116.177 58.2994 116.177C57.9576 116.177 57.6297 116.038 57.3879 115.792C57.1462 115.546 57.0104 115.212 57.0104 114.864V90.0487L37.3225 111.274C37.0874 111.525 36.764 111.671 36.4232 111.681C36.0823 111.69 35.7518 111.561 35.5039 111.323C35.256 111.084 35.111 110.756 35.1006 110.409C35.0901 110.062 35.2151 109.725 35.4482 109.471L56.527 86.7474H23.4948C22.811 86.7474 22.1552 86.4709 21.6717 85.9786C21.1882 85.4863 20.9166 84.8186 20.9166 84.1224C20.9166 83.4262 21.1882 82.7586 21.6717 82.2663C22.1552 81.774 22.811 81.4974 23.4948 81.4974H93.1041C93.7879 81.4974 94.4436 81.774 94.9271 82.2663C95.4106 82.7586 95.6823 83.4262 95.6823 84.1224Z" fill="#F4E2D8"/>
</g>
</g>
<defs>
<clipPath id="clip0_24_32">
<rect width="82.5" height="84" fill="white" transform="translate(16.9166 30.6016)"/>
</clipPath>
</defs>
</svg>
